<?xml version="1.0" encoding="UTF-8"?>
<svg width="256" height="256" viewBox="0 0 256 256" xmlns="http://www.w3.org/2000/svg">
  <!-- Background Circle -->
  <circle cx="128" cy="128" r="120" fill="#1A1A1A" stroke="#FFD700" stroke-width="6"/>
  
  <!-- Dollar Sign -->
  <g fill="#FFD700">
    <!-- Vertical line of $ -->
    <rect x="120" y="40" width="16" height="176" rx="8"/>
    
    <!-- Top curve of $ -->
    <path d="M 128 80 Q 100 80 100 110 Q 100 125 128 125 L 156 125 Q 170 125 170 140 Q 170 155 140 155 L 86 155" 
          stroke="#FFD700" stroke-width="16" fill="none" stroke-linecap="round"/>
    
    <!-- Bottom curve of $ -->
    <path d="M 128 125 L 100 125 Q 86 125 86 140 Q 86 155 100 155 L 156 155 Q 170 155 170 170 Q 170 185 128 185" 
          stroke="#FFD700" stroke-width="16" fill="none" stroke-linecap="round"/>
  </g>
  
  <!-- Decorative coins around -->
  <circle cx="80" cy="80" r="12" fill="#FFD700" opacity="0.8"/>
  <circle cx="176" cy="80" r="10" fill="#FFD700" opacity="0.6"/>
  <circle cx="80" cy="176" r="10" fill="#FFD700" opacity="0.6"/>
  <circle cx="176" cy="176" r="12" fill="#FFD700" opacity="0.8"/>
  
  <!-- Small shine effect -->
  <ellipse cx="100" cy="88" rx="8" ry="4" fill="#FFFFCC" opacity="0.4" transform="rotate(-45 100 88)"/>
</svg>
